<svg xmlns="http://www.w3.org/2000/svg" xmlns:xlink="http://www.w3.org/1999/xlink" viewBox="0,0,256,256" width="24px" height="24px" fill-rule="nonzero"><g fill="#e26b8e" fill-rule="nonzero" stroke="none" stroke-width="1" stroke-linecap="butt" stroke-linejoin="miter" stroke-miterlimit="10" stroke-dasharray="" stroke-dashoffset="0" font-family="none" font-weight="none" font-size="none" text-anchor="none" style="mix-blend-mode: normal"><g transform="scale(10.66667,10.66667)"><path d="M19.667,8.985c0.364,-2.865 0.576,-5.287 -1.659,-5.846c-1.669,-0.42 -2.92,0.675 -3.745,1.399c-0.058,0.052 -0.115,0.102 -0.171,0.15c-0.912,-0.122 -2.26,-0.188 -2.842,-0.188c-1.212,0 -2.237,0.19 -3.435,0.646c-1.062,-0.591 -2.801,-1.542 -4.239,-0.985c-0.663,0.257 -1.202,0.877 -1.475,1.701c-0.408,1.222 -0.204,2.703 0.554,4.134c-0.428,0.963 -0.645,1.973 -0.645,3.007c0,4.446 3.571,6.997 9.797,6.997c6.444,0 9.193,-2.094 9.193,-7c0,-1.401 -0.437,-2.719 -1.333,-4.015z" opacity="0.35"></path><path d="M3,14h-2c-0.553,0 -1,-0.447 -1,-1c0,-0.553 0.447,-1 1,-1h2c0.553,0 1,0.447 1,1c0,0.553 -0.447,1 -1,1z"></path><ellipse cx="7" cy="12.992" rx="1" ry="0.992"></ellipse><circle cx="16" cy="13" r="1"></circle><ellipse cx="11.51" cy="15.989" rx="1.51" ry="0.989"></ellipse><path d="M2.001,19c-0.368,0 -0.723,-0.204 -0.896,-0.556c-0.246,-0.495 -0.044,-1.095 0.451,-1.34l1.938,-0.961c0.493,-0.247 1.095,-0.043 1.34,0.451c0.246,0.495 0.044,1.095 -0.451,1.34l-1.938,0.961c-0.143,0.072 -0.295,0.105 -0.444,0.105z"></path><path d="M21.582,5.979c-0.356,-0.622 -0.887,-0.979 -1.457,-0.979c-1.352,0 -2.276,0.683 -2.827,1.091l-0.134,0.099l-0.007,0.005c-0.312,-0.958 -0.947,-2.142 -2.418,-2.193l-0.11,-0.002v0c-0.691,0 -2.332,0.279 -2.638,2.866c-0.071,0.564 -0.092,1.617 0.563,2.378c0.28,0.326 0.795,0.718 1.656,0.739l0.118,0.001c0.745,0 1.37,-0.212 2.29,-0.806c0.603,1.105 1.658,1.747 2.552,1.819c0.112,0.009 0.216,0.013 0.314,0.013c1.104,0 1.613,-0.605 1.998,-1.259c0.791,-1.342 0.62,-2.861 0.1,-3.772z"></path><path d="M22,14h-2c-0.553,0 -1,-0.447 -1,-1c0,-0.553 0.447,-1 1,-1h2c0.553,0 1,0.447 1,1c0,0.553 -0.447,1 -1,1z"></path><path d="M20.999,19c-0.149,0 -0.301,-0.033 -0.443,-0.104l-1.938,-0.961c-0.495,-0.245 -0.697,-0.845 -0.451,-1.34c0.245,-0.494 0.847,-0.698 1.34,-0.451l1.938,0.961c0.495,0.245 0.697,0.845 0.451,1.34c-0.174,0.351 -0.529,0.555 -0.897,0.555z"></path></g></g></svg>