<?xml version="1.0" encoding="UTF-8" standalone="no"?>
<svg xmlns="http://www.w3.org/2000/svg"
   xmlns:inkscape="http://www.inkscape.org/namespaces/inkscape"
   width="130" height="26" viewBox="0 0 130 26" version="1.1">
  <defs>
    <!-- Retro pink face gradient -->
    <linearGradient id="btnFace" x1="0" y1="0" x2="0" y2="1">
      <stop offset="0%" stop-color="#ffb8d0"/><stop offset="100%" stop-color="#ff90b8"/>
    </linearGradient>
    <linearGradient id="btnFaceHover" x1="0" y1="0" x2="0" y2="1">
      <stop offset="0%" stop-color="#ffc8dd"/><stop offset="100%" stop-color="#ffa0c8"/>
    </linearGradient>
    <linearGradient id="btnFacePressed" x1="0" y1="0" x2="0" y2="1">
      <stop offset="0%" stop-color="#e880a8"/><stop offset="100%" stop-color="#ff90b8"/>
    </linearGradient>
    <linearGradient id="btnFaceInactive" x1="0" y1="0" x2="0" y2="1">
      <stop offset="0%" stop-color="#e8d0dc"/><stop offset="100%" stop-color="#dcc0d0"/>
    </linearGradient>
  </defs>

  <!-- ══ NORMAL ══ -->
  <g id="center" inkscape:label="center">
    <!-- Outer border -->
    <rect x="1" y="1" width="24" height="24" rx="1" fill="#880040"/>
    <!-- Highlight edge (top-left light) -->
    <rect x="1" y="1" width="23" height="23" rx="1" fill="#ffdcec"/>
    <!-- Shadow edge (bottom-right dark) -->
    <rect x="2" y="2" width="23" height="23" rx="1" fill="#aa4070"/>
    <!-- Inner highlight -->
    <rect x="2" y="2" width="22" height="22" rx="1" fill="#ffe8f0"/>
    <!-- Inner shadow -->
    <rect x="3" y="3" width="22" height="22" rx="1" fill="#cc6090"/>
    <!-- Button face -->
    <rect x="3" y="3" width="20" height="20" rx="1" fill="url(#btnFace)"/>
    <!-- ✕ glyph -->
    <g stroke="#880040" stroke-width="2.2" stroke-linecap="round">
      <line x1="8" y1="8" x2="18" y2="18"/>
      <line x1="18" y1="8" x2="8" y2="18"/>
    </g>
    <!-- ✕ white shadow for depth -->
    <g stroke="#ffdcec" stroke-width="2.2" stroke-linecap="round" opacity="0.4">
      <line x1="8.5" y1="7.5" x2="18.5" y2="17.5"/>
      <line x1="18.5" y1="7.5" x2="8.5" y2="17.5"/>
    </g>
  </g>

  <!-- ══ HOVER ══ -->
  <g id="hover-center" inkscape:label="hover-center">
    <rect x="33" y="1" width="24" height="24" rx="1" fill="#990050"/>
    <rect x="33" y="1" width="23" height="23" rx="1" fill="#ffe4f2"/>
    <rect x="34" y="2" width="23" height="23" rx="1" fill="#bb5080"/>
    <rect x="34" y="2" width="22" height="22" rx="1" fill="#fff0f5"/>
    <rect x="35" y="3" width="22" height="22" rx="1" fill="#dd70a0"/>
    <rect x="35" y="3" width="20" height="20" rx="1" fill="url(#btnFaceHover)"/>
    <g stroke="#990050" stroke-width="2.4" stroke-linecap="round">
      <line x1="40" y1="8" x2="50" y2="18"/>
      <line x1="50" y1="8" x2="40" y2="18"/>
    </g>
    <g stroke="#ffe4f2" stroke-width="2.4" stroke-linecap="round" opacity="0.5">
      <line x1="40.5" y1="7.5" x2="50.5" y2="17.5"/>
      <line x1="50.5" y1="7.5" x2="40.5" y2="17.5"/>
    </g>
  </g>

  <!-- ══ PRESSED (sunken border — inverted highlights) ══ -->
  <g id="pressed-center" inkscape:label="pressed-center">
    <rect x="65" y="1" width="24" height="24" rx="1" fill="#880040"/>
    <!-- Sunken: dark on top-left -->
    <rect x="65" y="1" width="23" height="23" rx="1" fill="#aa4070"/>
    <!-- Sunken: light on bottom-right -->
    <rect x="66" y="2" width="23" height="23" rx="1" fill="#ffdcec"/>
    <rect x="66" y="2" width="22" height="22" rx="1" fill="#cc6090"/>
    <rect x="67" y="3" width="22" height="22" rx="1" fill="#ffe8f0"/>
    <rect x="67" y="3" width="20" height="20" rx="1" fill="url(#btnFacePressed)"/>
    <!-- Glyph shifted 1px down-right for pressed effect -->
    <g stroke="#880040" stroke-width="2.2" stroke-linecap="round">
      <line x1="73" y1="9" x2="83" y2="19"/>
      <line x1="83" y1="9" x2="73" y2="19"/>
    </g>
  </g>

  <!-- ══ INACTIVE ══ -->
  <g id="deactivated-center" inkscape:label="deactivated-center">
    <rect x="97" y="1" width="24" height="24" rx="1" fill="#a08090"/>
    <rect x="97" y="1" width="23" height="23" rx="1" fill="#f0e0e8"/>
    <rect x="98" y="2" width="23" height="23" rx="1" fill="#b898a8"/>
    <rect x="98" y="2" width="22" height="22" rx="1" fill="#f0e8ec"/>
    <rect x="99" y="3" width="22" height="22" rx="1" fill="#c8b0bc"/>
    <rect x="99" y="3" width="20" height="20" rx="1" fill="url(#btnFaceInactive)"/>
    <g stroke="#a08090" stroke-width="2" stroke-linecap="round">
      <line x1="104" y1="8" x2="114" y2="18"/>
      <line x1="114" y1="8" x2="104" y2="18"/>
    </g>
  </g>
</svg>
