<?xml version="1.0" encoding="UTF-8" standalone="no"?>
<svg xmlns="http://www.w3.org/2000/svg"
   xmlns:inkscape="http://www.inkscape.org/namespaces/inkscape"
   width="130" height="26" viewBox="0 0 130 26" version="1.1">
  <defs>
    <linearGradient id="btnFace" x1="0" y1="0" x2="0" y2="1">
      <stop offset="0%" stop-color="#ffb8d0"/><stop offset="100%" stop-color="#ff90b8"/>
    </linearGradient>
    <linearGradient id="btnFaceHover" x1="0" y1="0" x2="0" y2="1">
      <stop offset="0%" stop-color="#ffc8dd"/><stop offset="100%" stop-color="#ffa0c8"/>
    </linearGradient>
    <linearGradient id="btnFacePressed" x1="0" y1="0" x2="0" y2="1">
      <stop offset="0%" stop-color="#e880a8"/><stop offset="100%" stop-color="#ff90b8"/>
    </linearGradient>
    <linearGradient id="btnFaceInactive" x1="0" y1="0" x2="0" y2="1">
      <stop offset="0%" stop-color="#e8d0dc"/><stop offset="100%" stop-color="#dcc0d0"/>
    </linearGradient>
  </defs>

  <g id="center" inkscape:label="center">
    <rect x="1" y="1" width="24" height="24" rx="1" fill="#880040"/>
    <rect x="1" y="1" width="23" height="23" rx="1" fill="#ffdcec"/>
    <rect x="2" y="2" width="23" height="23" rx="1" fill="#aa4070"/>
    <rect x="2" y="2" width="22" height="22" rx="1" fill="#ffe8f0"/>
    <rect x="3" y="3" width="22" height="22" rx="1" fill="#cc6090"/>
    <rect x="3" y="3" width="20" height="20" rx="1" fill="url(#btnFace)"/>
    <!-- ▲ up arrow -->
    <polygon points="13,7 7,17 19,17" fill="#880040"/>
    <polygon points="13.5,6.5 7.5,16.5 19.5,16.5" fill="#ffdcec" opacity="0.3"/>
  </g>

  <g id="hover-center" inkscape:label="hover-center">
    <rect x="33" y="1" width="24" height="24" rx="1" fill="#990050"/>
    <rect x="33" y="1" width="23" height="23" rx="1" fill="#ffe4f2"/>
    <rect x="34" y="2" width="23" height="23" rx="1" fill="#bb5080"/>
    <rect x="34" y="2" width="22" height="22" rx="1" fill="#fff0f5"/>
    <rect x="35" y="3" width="22" height="22" rx="1" fill="#dd70a0"/>
    <rect x="35" y="3" width="20" height="20" rx="1" fill="url(#btnFaceHover)"/>
    <polygon points="45,7 39,17 51,17" fill="#990050"/>
    <polygon points="45.5,6.5 39.5,16.5 51.5,16.5" fill="#ffe4f2" opacity="0.35"/>
  </g>

  <g id="pressed-center" inkscape:label="pressed-center">
    <rect x="65" y="1" width="24" height="24" rx="1" fill="#880040"/>
    <rect x="65" y="1" width="23" height="23" rx="1" fill="#aa4070"/>
    <rect x="66" y="2" width="23" height="23" rx="1" fill="#ffdcec"/>
    <rect x="66" y="2" width="22" height="22" rx="1" fill="#cc6090"/>
    <rect x="67" y="3" width="22" height="22" rx="1" fill="#ffe8f0"/>
    <rect x="67" y="3" width="20" height="20" rx="1" fill="url(#btnFacePressed)"/>
    <polygon points="77,8 71,18 83,18" fill="#880040"/>
  </g>

  <g id="deactivated-center" inkscape:label="deactivated-center">
    <rect x="97" y="1" width="24" height="24" rx="1" fill="#a08090"/>
    <rect x="97" y="1" width="23" height="23" rx="1" fill="#f0e0e8"/>
    <rect x="98" y="2" width="23" height="23" rx="1" fill="#b898a8"/>
    <rect x="98" y="2" width="22" height="22" rx="1" fill="#f0e8ec"/>
    <rect x="99" y="3" width="22" height="22" rx="1" fill="#c8b0bc"/>
    <rect x="99" y="3" width="20" height="20" rx="1" fill="url(#btnFaceInactive)"/>
    <polygon points="109,7 103,17 115,17" fill="#a08090"/>
  </g>
</svg>
